<svg xmlns="http://www.w3.org/2000/svg" viewBox="0 0 64 64" role="img" aria-label="English Notehub favicon">
  <defs>
    <linearGradient id="fg" x1="0" y1="0" x2="1" y2="1">
      <stop offset="0%" stop-color="#14b8a6"/>
      <stop offset="100%" stop-color="#3b82f6"/>
    </linearGradient>
  </defs>
  <rect width="64" height="64" rx="14" fill="url(#fg)"/>
  <!-- Open book -->
  <path d="M32 16 C26 16 19 15 14 13 L14 43 C19 44.5 26 45.5 32 45.5" stroke="white" stroke-width="2.5" stroke-linecap="round" stroke-linejoin="round" fill="none"/>
  <path d="M32 16 C38 16 45 15 50 13 L50 43 C45 44.5 38 45.5 32 45.5" stroke="white" stroke-width="2.5" stroke-linecap="round" stroke-linejoin="round" fill="none"/>
  <line x1="32" y1="16" x2="32" y2="45.5" stroke="white" stroke-width="2" stroke-linecap="round"/>
  <!-- Page lines -->
  <line x1="19" y1="23" x2="28" y2="23.8" stroke="white" stroke-width="1.2" stroke-linecap="round" opacity="0.5"/>
  <line x1="18.5" y1="28" x2="28" y2="29" stroke="white" stroke-width="1.2" stroke-linecap="round" opacity="0.5"/>
  <line x1="18" y1="33" x2="28" y2="34.2" stroke="white" stroke-width="1.2" stroke-linecap="round" opacity="0.5"/>
  <!-- Speech bubble -->
  <rect x="37" y="20" width="13" height="11.5" rx="3" fill="white"/>
  <polygon points="40,31.5 42.5,35 43.5,31.5" fill="white"/>
  <text x="43.5" y="27.5" font-family="system-ui, sans-serif" font-size="9" font-weight="700" fill="#14b8a6" text-anchor="middle" dominant-baseline="central">A</text>
</svg>
